<svg xmlns="http://www.w3.org/2000/svg" width="1180" height="560" viewBox="0 0 1180 560"><title>generation / sampling</title><defs><marker id="arrow" viewBox="0 0 10 10" refX="9" refY="5" markerWidth="8" markerHeight="8" orient="auto-start-reverse"><path d="M0,0 L10,5 L0,10 z" fill="#6b7280"/></marker><pattern id="hatch" width="6" height="6" patternUnits="userSpaceOnUse" patternTransform="rotate(45)"><rect width="6" height="6" fill="#f3f4f6"/><line x1="0" y1="0" x2="0" y2="6" stroke="#9ca3af" stroke-width="2"/></pattern></defs><rect width="1180" height="560" fill="#ffffff"/><text x="590" y="30" text-anchor="middle" xml:space="preserve" style="font-family:Inter, 'Helvetica Neue', Helvetica, Arial, sans-serif;font-size:19px;font-weight:700;fill:#111827">Generation: fill a masked grid, then refine it in rounds, then decode two ways</text><text x="590" y="52" text-anchor="middle" xml:space="preserve" style="font-family:Inter, 'Helvetica Neue', Helvetica, Arial, sans-serif;font-size:12px;font-weight:normal;fill:#4b5563;font-style:italic">latentgen/sampling.py -- one slot per forward pass, random order, plain softmax sampling</text><rect x="60" y="100" width="22" height="22" fill="url(#hatch)" stroke="#7c3aed" stroke-width="0.8"/><rect x="82" y="100" width="22" height="22" fill="url(#hatch)" stroke="#7c3aed" stroke-width="0.8"/><rect x="104" y="100" width="22" height="22" fill="url(#hatch)" stroke="#7c3aed" stroke-width="0.8"/><rect x="126" y="100" width="22" height="22" fill="url(#hatch)" stroke="#7c3aed" stroke-width="0.8"/><rect x="60" y="122" width="22" height="22" fill="url(#hatch)" stroke="#7c3aed" stroke-width="0.8"/><rect x="82" y="122" width="22" height="22" fill="url(#hatch)" stroke="#7c3aed" stroke-width="0.8"/><rect x="104" y="122" width="22" height="22" fill="url(#hatch)" stroke="#7c3aed" stroke-width="0.8"/><rect x="126" y="122" width="22" height="22" fill="url(#hatch)" stroke="#7c3aed" stroke-width="0.8"/><rect x="60" y="144" width="22" height="22" fill="url(#hatch)" stroke="#7c3aed" stroke-width="0.8"/><rect x="82" y="144" width="22" height="22" fill="url(#hatch)" stroke="#7c3aed" stroke-width="0.8"/><rect x="104" y="144" width="22" height="22" fill="url(#hatch)" stroke="#7c3aed" stroke-width="0.8"/><rect x="126" y="144" width="22" height="22" fill="url(#hatch)" stroke="#7c3aed" stroke-width="0.8"/><rect x="60" y="166" width="22" height="22" fill="url(#hatch)" stroke="#7c3aed" stroke-width="0.8"/><rect x="82" y="166" width="22" height="22" fill="url(#hatch)" stroke="#7c3aed" stroke-width="0.8"/><rect x="104" y="166" width="22" height="22" fill="url(#hatch)" stroke="#7c3aed" stroke-width="0.8"/><rect x="126" y="166" width="22" height="22" fill="url(#hatch)" stroke="#7c3aed" stroke-width="0.8"/><text x="104.0" y="204" text-anchor="middle" xml:space="preserve" style="font-family:Inter, 'Helvetica Neue', Helvetica, Arial, sans-serif;font-size:11px;font-weight:normal;fill:#4b5563">1. all masked</text><line x1="153" y1="144" x2="207" y2="144" stroke="#6b7280" stroke-width="1.8" marker-end="url(#arrow)"/><rect x="212" y="100" width="22" height="22" fill="#bfdbfe" stroke="#7c3aed" stroke-width="0.8"/><rect x="234" y="100" width="22" height="22" fill="#fbcfe8" stroke="#7c3aed" stroke-width="0.8"/><rect x="256" y="100" width="22" height="22" fill="#bbf7d0" stroke="#7c3aed" stroke-width="0.8"/><rect x="278" y="100" width="22" height="22" fill="#fed7aa" stroke="#7c3aed" stroke-width="0.8"/><rect x="212" y="122" width="22" height="22" fill="#fecaca" stroke="#7c3aed" stroke-width="0.8"/><rect x="234" y="122" width="22" height="22" fill="#bfdbfe" stroke="#7c3aed" stroke-width="0.8"/><rect x="256" y="122" width="22" height="22" fill="#fbcfe8" stroke="#7c3aed" stroke-width="0.8"/><rect x="278" y="122" width="22" height="22" fill="#bbf7d0" stroke="#7c3aed" stroke-width="0.8"/><rect x="212" y="144" width="22" height="22" fill="#a5f3fc" stroke="#7c3aed" stroke-width="0.8"/><rect x="234" y="144" width="22" height="22" fill="#fecaca" stroke="#7c3aed" stroke-width="0.8"/><rect x="256" y="144" width="22" height="22" fill="#bfdbfe" stroke="#7c3aed" stroke-width="0.8"/><rect x="278" y="144" width="22" height="22" fill="#fbcfe8" stroke="#7c3aed" stroke-width="0.8"/><rect x="212" y="166" width="22" height="22" fill="#fde68a" stroke="#7c3aed" stroke-width="0.8"/><rect x="234" y="166" width="22" height="22" fill="#a5f3fc" stroke="#7c3aed" stroke-width="0.8"/><rect x="256" y="166" width="22" height="22" fill="#fecaca" stroke="#7c3aed" stroke-width="0.8"/><rect x="278" y="166" width="22" height="22" fill="#bfdbfe" stroke="#7c3aed" stroke-width="0.8"/><text x="256.0" y="204" text-anchor="middle" xml:space="preserve" style="font-family:Inter, 'Helvetica Neue', Helvetica, Arial, sans-serif;font-size:11px;font-weight:normal;fill:#4b5563">fill: sample 75 % of slots</text><text x="256" y="215" text-anchor="middle" xml:space="preserve" style="font-family:Inter, 'Helvetica Neue', Helvetica, Arial, sans-serif;font-size:10px;font-weight:normal;fill:#4b5563">one at a time, argmax the rest</text><line x1="305" y1="144" x2="359" y2="144" stroke="#6b7280" stroke-width="1.8" marker-end="url(#arrow)"/><text x="332.0" y="134.0" text-anchor="middle" xml:space="preserve" style="font-family:Inter, 'Helvetica Neue', Helvetica, Arial, sans-serif;font-size:11px;font-weight:normal;fill:#4b5563">keep 1 %</text><rect x="364" y="100" width="22" height="22" fill="url(#hatch)" stroke="#7c3aed" stroke-width="0.8"/><rect x="386" y="100" width="22" height="22" fill="url(#hatch)" stroke="#7c3aed" stroke-width="0.8"/><rect x="408" y="100" width="22" height="22" fill="#bbf7d0" stroke="#7c3aed" stroke-width="0.8"/><rect x="430" y="100" width="22" height="22" fill="url(#hatch)" stroke="#7c3aed" stroke-width="0.8"/><rect x="364" y="122" width="22" height="22" fill="url(#hatch)" stroke="#7c3aed" stroke-width="0.8"/><rect x="386" y="122" width="22" height="22" fill="#bfdbfe" stroke="#7c3aed" stroke-width="0.8"/><rect x="408" y="122" width="22" height="22" fill="url(#hatch)" stroke="#7c3aed" stroke-width="0.8"/><rect x="430" y="122" width="22" height="22" fill="url(#hatch)" stroke="#7c3aed" stroke-width="0.8"/><rect x="364" y="144" width="22" height="22" fill="url(#hatch)" stroke="#7c3aed" stroke-width="0.8"/><rect x="386" y="144" width="22" height="22" fill="#fecaca" stroke="#7c3aed" stroke-width="0.8"/><rect x="408" y="144" width="22" height="22" fill="url(#hatch)" stroke="#7c3aed" stroke-width="0.8"/><rect x="430" y="144" width="22" height="22" fill="url(#hatch)" stroke="#7c3aed" stroke-width="0.8"/><rect x="364" y="166" width="22" height="22" fill="url(#hatch)" stroke="#7c3aed" stroke-width="0.8"/><rect x="386" y="166" width="22" height="22" fill="#a5f3fc" stroke="#7c3aed" stroke-width="0.8"/><rect x="408" y="166" width="22" height="22" fill="url(#hatch)" stroke="#7c3aed" stroke-width="0.8"/><rect x="430" y="166" width="22" height="22" fill="url(#hatch)" stroke="#7c3aed" stroke-width="0.8"/><text x="408.0" y="204" text-anchor="middle" xml:space="preserve" style="font-family:Inter, 'Helvetica Neue', Helvetica, Arial, sans-serif;font-size:11px;font-weight:normal;fill:#4b5563">2. re-mask 99 %, fill</text><line x1="457" y1="144" x2="511" y2="144" stroke="#6b7280" stroke-width="1.8" marker-end="url(#arrow)"/><text x="484.0" y="134.0" text-anchor="middle" xml:space="preserve" style="font-family:Inter, 'Helvetica Neue', Helvetica, Arial, sans-serif;font-size:11px;font-weight:normal;fill:#4b5563">keep 2 %</text><rect x="516" y="100" width="22" height="22" fill="url(#hatch)" stroke="#7c3aed" stroke-width="0.8"/><rect x="538" y="100" width="22" height="22" fill="url(#hatch)" stroke="#7c3aed" stroke-width="0.8"/><rect x="560" y="100" width="22" height="22" fill="#bbf7d0" stroke="#7c3aed" stroke-width="0.8"/><rect x="582" y="100" width="22" height="22" fill="url(#hatch)" stroke="#7c3aed" stroke-width="0.8"/><rect x="516" y="122" width="22" height="22" fill="url(#hatch)" stroke="#7c3aed" stroke-width="0.8"/><rect x="538" y="122" width="22" height="22" fill="#bfdbfe" stroke="#7c3aed" stroke-width="0.8"/><rect x="560" y="122" width="22" height="22" fill="url(#hatch)" stroke="#7c3aed" stroke-width="0.8"/><rect x="582" y="122" width="22" height="22" fill="url(#hatch)" stroke="#7c3aed" stroke-width="0.8"/><rect x="516" y="144" width="22" height="22" fill="url(#hatch)" stroke="#7c3aed" stroke-width="0.8"/><rect x="538" y="144" width="22" height="22" fill="#fecaca" stroke="#7c3aed" stroke-width="0.8"/><rect x="560" y="144" width="22" height="22" fill="url(#hatch)" stroke="#7c3aed" stroke-width="0.8"/><rect x="582" y="144" width="22" height="22" fill="url(#hatch)" stroke="#7c3aed" stroke-width="0.8"/><rect x="516" y="166" width="22" height="22" fill="url(#hatch)" stroke="#7c3aed" stroke-width="0.8"/><rect x="538" y="166" width="22" height="22" fill="#a5f3fc" stroke="#7c3aed" stroke-width="0.8"/><rect x="560" y="166" width="22" height="22" fill="url(#hatch)" stroke="#7c3aed" stroke-width="0.8"/><rect x="582" y="166" width="22" height="22" fill="url(#hatch)" stroke="#7c3aed" stroke-width="0.8"/><text x="560.0" y="204" text-anchor="middle" xml:space="preserve" style="font-family:Inter, 'Helvetica Neue', Helvetica, Arial, sans-serif;font-size:11px;font-weight:normal;fill:#4b5563">3. re-mask 98 %, fill</text><text x="689.0" y="148" text-anchor="middle" xml:space="preserve" style="font-family:Inter, 'Helvetica Neue', Helvetica, Arial, sans-serif;font-size:12px;font-weight:normal;fill:#4b5563">... 4, 8, 16, 32 % ...</text><line x1="774" y1="144" x2="829" y2="144" stroke="#6b7280" stroke-width="1.8" marker-end="url(#arrow)"/><text x="801.5" y="134.0" text-anchor="middle" xml:space="preserve" style="font-family:Inter, 'Helvetica Neue', Helvetica, Arial, sans-serif;font-size:11px;font-weight:normal;fill:#4b5563">keep 64 %</text><rect x="834" y="100" width="22" height="22" fill="#bfdbfe" stroke="#7c3aed" stroke-width="0.8"/><rect x="856" y="100" width="22" height="22" fill="#fbcfe8" stroke="#7c3aed" stroke-width="0.8"/><rect x="878" y="100" width="22" height="22" fill="url(#hatch)" stroke="#7c3aed" stroke-width="0.8"/><rect x="900" y="100" width="22" height="22" fill="#fed7aa" stroke="#7c3aed" stroke-width="0.8"/><rect x="834" y="122" width="22" height="22" fill="#fecaca" stroke="#7c3aed" stroke-width="0.8"/><rect x="856" y="122" width="22" height="22" fill="url(#hatch)" stroke="#7c3aed" stroke-width="0.8"/><rect x="878" y="122" width="22" height="22" fill="#fbcfe8" stroke="#7c3aed" stroke-width="0.8"/><rect x="900" y="122" width="22" height="22" fill="#bbf7d0" stroke="#7c3aed" stroke-width="0.8"/><rect x="834" y="144" width="22" height="22" fill="#a5f3fc" stroke="#7c3aed" stroke-width="0.8"/><rect x="856" y="144" width="22" height="22" fill="#fecaca" stroke="#7c3aed" stroke-width="0.8"/><rect x="878" y="144" width="22" height="22" fill="#bfdbfe" stroke="#7c3aed" stroke-width="0.8"/><rect x="900" y="144" width="22" height="22" fill="url(#hatch)" stroke="#7c3aed" stroke-width="0.8"/><rect x="834" y="166" width="22" height="22" fill="#fde68a" stroke="#7c3aed" stroke-width="0.8"/><rect x="856" y="166" width="22" height="22" fill="#a5f3fc" stroke="#7c3aed" stroke-width="0.8"/><rect x="878" y="166" width="22" height="22" fill="#fecaca" stroke="#7c3aed" stroke-width="0.8"/><rect x="900" y="166" width="22" height="22" fill="#bfdbfe" stroke="#7c3aed" stroke-width="0.8"/><text x="878.0" y="204" text-anchor="middle" xml:space="preserve" style="font-family:Inter, 'Helvetica Neue', Helvetica, Arial, sans-serif;font-size:11px;font-weight:normal;fill:#4b5563">8. re-mask 36 %, fill</text><line x1="927" y1="144" x2="981" y2="144" stroke="#6b7280" stroke-width="1.8" marker-end="url(#arrow)"/><rect x="986" y="100" width="22" height="22" fill="#bfdbfe" stroke="#7c3aed" stroke-width="0.8"/><rect x="1008" y="100" width="22" height="22" fill="#fbcfe8" stroke="#7c3aed" stroke-width="0.8"/><rect x="1030" y="100" width="22" height="22" fill="#bbf7d0" stroke="#7c3aed" stroke-width="0.8"/><rect x="1052" y="100" width="22" height="22" fill="#fed7aa" stroke="#7c3aed" stroke-width="0.8"/><rect x="986" y="122" width="22" height="22" fill="#fecaca" stroke="#7c3aed" stroke-width="0.8"/><rect x="1008" y="122" width="22" height="22" fill="#bfdbfe" stroke="#7c3aed" stroke-width="0.8"/><rect x="1030" y="122" width="22" height="22" fill="#fbcfe8" stroke="#7c3aed" stroke-width="0.8"/><rect x="1052" y="122" width="22" height="22" fill="#bbf7d0" stroke="#7c3aed" stroke-width="0.8"/><rect x="986" y="144" width="22" height="22" fill="#a5f3fc" stroke="#7c3aed" stroke-width="0.8"/><rect x="1008" y="144" width="22" height="22" fill="#fecaca" stroke="#7c3aed" stroke-width="0.8"/><rect x="1030" y="144" width="22" height="22" fill="#bfdbfe" stroke="#7c3aed" stroke-width="0.8"/><rect x="1052" y="144" width="22" height="22" fill="#fbcfe8" stroke="#7c3aed" stroke-width="0.8"/><rect x="986" y="166" width="22" height="22" fill="#fde68a" stroke="#7c3aed" stroke-width="0.8"/><rect x="1008" y="166" width="22" height="22" fill="#a5f3fc" stroke="#7c3aed" stroke-width="0.8"/><rect x="1030" y="166" width="22" height="22" fill="#fecaca" stroke="#7c3aed" stroke-width="0.8"/><rect x="1052" y="166" width="22" height="22" fill="#bfdbfe" stroke="#7c3aed" stroke-width="0.8"/><text x="1030.0" y="204" text-anchor="middle" xml:space="preserve" style="font-family:Inter, 'Helvetica Neue', Helvetica, Arial, sans-serif;font-size:11px;font-weight:normal;fill:#4b5563">final code grid</text><text x="300" y="270" text-anchor="middle" xml:space="preserve" style="font-family:Inter, 'Helvetica Neue', Helvetica, Arial, sans-serif;font-size:13px;font-weight:600;fill:#111827">Forward passes per fill (1024 positions, sample_fraction 0.75)</text><line x1="80" y1="440" x2="520" y2="440" stroke="#6b7280"/><rect x="92" y="290.0" width="40" height="150.0" fill="#dcfce7" stroke="#16a34a"/><text x="112" y="285.0" text-anchor="middle" xml:space="preserve" style="font-family:Inter, 'Helvetica Neue', Helvetica, Arial, sans-serif;font-size:10px;font-weight:normal;fill:#4b5563">769</text><text x="112" y="454" text-anchor="middle" xml:space="preserve" style="font-family:Inter, 'Helvetica Neue', Helvetica, Arial, sans-serif;font-size:10px;font-weight:normal;fill:#4b5563">0%</text><rect x="146" y="291.56046814044214" width="40" height="148.43953185955786" fill="#dcfce7" stroke="#16a34a"/><text x="166" y="286.56046814044214" text-anchor="middle" xml:space="preserve" style="font-family:Inter, 'Helvetica Neue', Helvetica, Arial, sans-serif;font-size:10px;font-weight:normal;fill:#4b5563">761</text><text x="166" y="454" text-anchor="middle" xml:space="preserve" style="font-family:Inter, 'Helvetica Neue', Helvetica, Arial, sans-serif;font-size:10px;font-weight:normal;fill:#4b5563">1%</text><rect x="200" y="292.925877763329" width="40" height="147.074122236671" fill="#dcfce7" stroke="#16a34a"/><text x="220" y="287.925877763329" text-anchor="middle" xml:space="preserve" style="font-family:Inter, 'Helvetica Neue', Helvetica, Arial, sans-serif;font-size:10px;font-weight:normal;fill:#4b5563">754</text><text x="220" y="454" text-anchor="middle" xml:space="preserve" style="font-family:Inter, 'Helvetica Neue', Helvetica, Arial, sans-serif;font-size:10px;font-weight:normal;fill:#4b5563">2%</text><rect x="254" y="296.0468140442133" width="40" height="143.95318595578672" fill="#dcfce7" stroke="#16a34a"/><text x="274" y="291.0468140442133" text-anchor="middle" xml:space="preserve" style="font-family:Inter, 'Helvetica Neue', Helvetica, Arial, sans-serif;font-size:10px;font-weight:normal;fill:#4b5563">738</text><text x="274" y="454" text-anchor="middle" xml:space="preserve" style="font-family:Inter, 'Helvetica Neue', Helvetica, Arial, sans-serif;font-size:10px;font-weight:normal;fill:#4b5563">4%</text><rect x="308" y="302.0936280884265" width="40" height="137.90637191157347" fill="#dcfce7" stroke="#16a34a"/><text x="328" y="297.0936280884265" text-anchor="middle" xml:space="preserve" style="font-family:Inter, 'Helvetica Neue', Helvetica, Arial, sans-serif;font-size:10px;font-weight:normal;fill:#4b5563">707</text><text x="328" y="454" text-anchor="middle" xml:space="preserve" style="font-family:Inter, 'Helvetica Neue', Helvetica, Arial, sans-serif;font-size:10px;font-weight:normal;fill:#4b5563">8%</text><rect x="362" y="313.9921976592978" width="40" height="126.00780234070221" fill="#dcfce7" stroke="#16a34a"/><text x="382" y="308.9921976592978" text-anchor="middle" xml:space="preserve" style="font-family:Inter, 'Helvetica Neue', Helvetica, Arial, sans-serif;font-size:10px;font-weight:normal;fill:#4b5563">646</text><text x="382" y="454" text-anchor="middle" xml:space="preserve" style="font-family:Inter, 'Helvetica Neue', Helvetica, Arial, sans-serif;font-size:10px;font-weight:normal;fill:#4b5563">16%</text><rect x="416" y="337.9843953185956" width="40" height="102.01560468140443" fill="#dcfce7" stroke="#16a34a"/><text x="436" y="332.9843953185956" text-anchor="middle" xml:space="preserve" style="font-family:Inter, 'Helvetica Neue', Helvetica, Arial, sans-serif;font-size:10px;font-weight:normal;fill:#4b5563">523</text><text x="436" y="454" text-anchor="middle" xml:space="preserve" style="font-family:Inter, 'Helvetica Neue', Helvetica, Arial, sans-serif;font-size:10px;font-weight:normal;fill:#4b5563">32%</text><rect x="470" y="385.7737321196359" width="40" height="54.22626788036411" fill="#dcfce7" stroke="#16a34a"/><text x="490" y="380.7737321196359" text-anchor="middle" xml:space="preserve" style="font-family:Inter, 'Helvetica Neue', Helvetica, Arial, sans-serif;font-size:10px;font-weight:normal;fill:#4b5563">278</text><text x="490" y="454" text-anchor="middle" xml:space="preserve" style="font-family:Inter, 'Helvetica Neue', Helvetica, Arial, sans-serif;font-size:10px;font-weight:normal;fill:#4b5563">64%</text><text x="300.0" y="470" text-anchor="middle" xml:space="preserve" style="font-family:Inter, 'Helvetica Neue', Helvetica, Arial, sans-serif;font-size:10px;font-weight:normal;fill:#4b5563">fraction of the grid kept going into each fill  (total ~5.2k passes per batch)</text><rect x="600" y="290" width="250" height="90" rx="10" fill="#dbeafe" stroke="#2563eb" stroke-width="1.6"/><text x="725.0" y="310" text-anchor="middle" xml:space="preserve" style="font-family:Inter, 'Helvetica Neue', Helvetica, Arial, sans-serif;font-size:14px;font-weight:600;fill:#111827">VQ-VAE decoder</text><text x="725.0" y="328" text-anchor="middle" xml:space="preserve" style="font-family:Inter, 'Helvetica Neue', Helvetica, Arial, sans-serif;font-size:11px;font-weight:normal;fill:#4b5563">codes -&gt; codebook lookup -&gt; PatchDecoder</text><text x="725.0" y="344" text-anchor="middle" xml:space="preserve" style="font-family:Inter, 'Helvetica Neue', Helvetica, Arial, sans-serif;font-size:11px;font-weight:normal;fill:#4b5563">faithful to the codes, soft</text><rect x="880" y="290" width="250" height="90" rx="10" fill="#ffedd5" stroke="#ea580c" stroke-width="1.6"/><text x="1005.0" y="310" text-anchor="middle" xml:space="preserve" style="font-family:Inter, 'Helvetica Neue', Helvetica, Arial, sans-serif;font-size:14px;font-weight:600;fill:#111827">GAN generator + AE decoder</text><text x="1005.0" y="328" text-anchor="middle" xml:space="preserve" style="font-family:Inter, 'Helvetica Neue', Helvetica, Arial, sans-serif;font-size:11px;font-weight:normal;fill:#4b5563">codes -&gt; fake latent [32,32,32]</text><text x="1005.0" y="344" text-anchor="middle" xml:space="preserve" style="font-family:Inter, 'Helvetica Neue', Helvetica, Arial, sans-serif;font-size:11px;font-weight:normal;fill:#4b5563">-&gt; PatchDecoder: sharp</text><path d="M1030,220 L1030,250 L725,250 L725,288" fill="none" stroke="#6b7280" stroke-width="1.8" marker-end="url(#arrow)"/><path d="M1030,220 L1030,250 L1005,250 L1005,288" fill="none" stroke="#6b7280" stroke-width="1.8" marker-end="url(#arrow)"/><text x="860" y="244" text-anchor="middle" xml:space="preserve" style="font-family:Inter, 'Helvetica Neue', Helvetica, Arial, sans-serif;font-size:11px;font-weight:normal;fill:#4b5563">same code grid, decoded twice</text><rect x="600" y="410" width="530" height="60" rx="10" fill="#dcfce7" stroke="#16a34a" stroke-width="1.6"/><text x="865.0" y="430" text-anchor="middle" xml:space="preserve" style="font-family:Inter, 'Helvetica Neue', Helvetica, Arial, sans-serif;font-size:11px;font-weight:normal;fill:#4b5563">output PNG: every row is  [ VQ image | GAN image ]  for one sampled grid,</text><text x="865.0" y="446" text-anchor="middle" xml:space="preserve" style="font-family:Inter, 'Helvetica Neue', Helvetica, Arial, sans-serif;font-size:11px;font-weight:normal;fill:#4b5563">plus the raw code grids as &lt;name&gt;.codes.pt so you can re-decode later</text><line x1="725" y1="382" x2="725" y2="408" stroke="#6b7280" stroke-width="1.8" marker-end="url(#arrow)"/><line x1="1005" y1="382" x2="1005" y2="408" stroke="#6b7280" stroke-width="1.8" marker-end="url(#arrow)"/><text x="590" y="515" text-anchor="middle" xml:space="preserve" style="font-family:Inter, 'Helvetica Neue', Helvetica, Arial, sans-serif;font-size:11px;font-weight:normal;fill:#4b5563;font-style:italic">Why re-mask so aggressively?  The first fill is drawn from an all-masked grid, which the model finds hardest;</text><text x="590" y="532" text-anchor="middle" xml:space="preserve" style="font-family:Inter, 'Helvetica Neue', Helvetica, Arial, sans-serif;font-size:11px;font-weight:normal;fill:#4b5563;font-style:italic">keeping just 1 % as anchors and redrawing the rest fixes global structure cheaply; later rounds polish locally.</text></svg>